# xmcd
#
# Track frame offsets: 
#        150
#        17975
#        43205
#        66600
#        92360
#        107040
#        124912
#        159737
#        176705
#        197047
#
# Disc length: 2911 seconds
#
# Revision: 1
# Processed by: cddbd v1.5.2PL0 Copyright (c) Steve Scherf et al.
# Submitted via: ExactAudioCopyFreeDBPlugin 1.0
#
DISCID=900b5d0a
DTITLE=Marco Ballanti and Organic Unity - BALLANTI'S ORGANIC UNITY
DYEAR=1997
DGENRE=Jazz
TTITLE0=UNITY
TTITLE1=KATUBA'
TTITLE2=MARGOT
TTITLE3=RED and BLUES
TTITLE4=NOTTE DI LUCI
TTITLE5=SLIT
TTITLE6=PROMESSE NOTTURNE
TTITLE7=FATS
TTITLE8=SEÑORITA
TTITLE9=VICTORIA FALLS
EXTD=
EXTT0=
EXTT1=
EXTT2=
EXTT3=
EXTT4=
EXTT5=
EXTT6=
EXTT7=
EXTT8=
EXTT9=
PLAYORDER=
